<?xml version="1.0" encoding="utf-8"?>
<!-- Generator: Adobe Illustrator 22.0.0, SVG Export Plug-In . SVG Version: 6.00 Build 0)  -->
<svg version="1.1" xmlns="http://www.w3.org/2000/svg" xmlns:xlink="http://www.w3.org/1999/xlink" x="0px" y="0px"
	 viewBox="0 0 1050.7 462.9" style="enable-background:new 0 0 1050.7 462.9;" xml:space="preserve">
<style type="text/css">
	.st0{fill:#0FCE00;}
	.st1{fill:#F4B21E;}
	.st2{fill:#4040D3;}
	.st3{fill:#4B0082;}
	.st4{fill:#E2D317;}
	.st5{fill:#CC1729;}
	.st6{fill:#9400D3;}
	.st7{fill:#3DB730;}
	.st8{fill:none;stroke:#1E1E1E;stroke-miterlimit:10;}
	.st9{fill:#1E1E1E;}
</style>
<g id="Layer_6">
	<g>
		<g>
			<path class="st0" d="M524.3,263.9c0.5-0.8,0.4-1.7,0.4-2.6c0-0.9,0-1.8,0-2.8c0-1.9-3-1.9-3,0c0,0.7,0,1.4,0,2.1c0,0.3,0,0.7,0,1
				c0,0.1,0.1,0.6,0,0.7C520.7,264.1,523.3,265.6,524.3,263.9L524.3,263.9z"/>
		</g>
	</g>
	<g>
		<g>
			<path class="st0" d="M523.2,265.9c1.9,0,1.9-3,0-3C521.3,262.9,521.3,265.9,523.2,265.9L523.2,265.9z"/>
		</g>
	</g>
	<g>
		<g>
			<path class="st0" d="M524.6,260.3c0.9-11,2.5-22.2,2.3-33.3c0-1.9-3-1.9-3,0c0.2,11.1-1.4,22.3-2.3,33.3
				C521.4,262.2,524.4,262.2,524.6,260.3L524.6,260.3z"/>
		</g>
	</g>
	<g>
		<g>
			<path class="st1" d="M442.8,84.6c1.4,3,2.9,5.9,4.5,8.8c1.4,2.5,3.8,4.2,5.1,6.6c0.9,1.7,3.5,0.2,2.6-1.5
				c-1.3-2.5-3.7-4.1-5.1-6.6c-1.6-2.9-3.1-5.8-4.5-8.8C444.6,81.3,442,82.9,442.8,84.6L442.8,84.6z"/>
		</g>
	</g>
	<g>
		<g>
			<path class="st1" d="M510.5,252.1c0.7,1.9,1,3.5,0.9,5.6c-0.1,1.9-0.4,3.9-0.3,5.8c0.1,1.9,3.1,1.9,3,0c-0.1-2.2,0.3-4.4,0.4-6.7
				c0.1-2-0.4-3.7-1-5.5C512.7,249.5,509.8,250.3,510.5,252.1L510.5,252.1z"/>
		</g>
	</g>
	<g>
		<g>
			<path class="st2" d="M527.8,252.4c-0.1,1.2-0.2,2.4-0.5,3.5c-0.3,0.9-0.9,1.6-1.1,2.5c-0.5,1.8-0.1,3.9,0,5.7c0,1.9,3,1.9,3,0
				c-0.1-2.3-0.3-4.2,0.6-6.3c0.7-1.7,0.9-3.5,1-5.4C531,250.5,528,250.5,527.8,252.4L527.8,252.4z"/>
		</g>
	</g>
	<g>
		<g>
			<path class="st3" d="M595.9,83.5c-2.1,3-4.2,6.1-6.5,8.9c-1.9,2.4-3.9,4.6-5.1,7.5c-0.8,1.7,1.8,3.3,2.6,1.5
				c1.4-3.1,3.7-5.6,5.8-8.2c2.1-2.6,3.9-5.4,5.9-8.2C599.6,83.4,597,81.9,595.9,83.5L595.9,83.5z"/>
		</g>
	</g>
	<g>
		<g>
			<path class="st3" d="M564.8,84.9c-0.7,1.3-1.5,2.3-1.9,3.7c-0.5,1.4-0.7,2.8-1.4,4c-0.9,1.7,1.7,3.2,2.6,1.5
				c0.7-1.2,1.1-2.5,1.5-3.8c0.4-1.5,1.2-2.6,1.9-3.9C568.3,84.7,565.7,83.2,564.8,84.9L564.8,84.9z"/>
		</g>
	</g>
	<g>
		<g>
			<path class="st4" d="M473.9,85.1c1.6,3.9,3.2,7.8,4.6,11.7c0.7,1.8,3.6,1,2.9-0.8c-1.5-4.2-3.2-8.3-4.9-12.4
				C475.7,81.8,473.1,83.3,473.9,85.1L473.9,85.1z"/>
		</g>
	</g>
	<g>
		<g>
			<path class="st2" d="M565.4,83.6c0.1,1.3-0.4,2.5-0.9,3.6c-0.3,0.7-0.2,1.6,0.5,2.1c0.6,0.4,1.7,0.2,2.1-0.5
				c0.7-1.6,1.4-3.3,1.3-5.1C568.3,81.7,565.3,81.7,565.4,83.6L565.4,83.6z"/>
		</g>
	</g>
</g>
<g id="Layer_3">
	<path class="st5" d="M381.3,82.3c57,31,100,85,125,180c0,0,2,7,3,1s-21-117-66-181C443.3,82.3,417.3,70.3,381.3,82.3z"/>
	<path class="st6" d="M661.3,82.3c-57,31-101,85-126,180c0,0-2,7-3,1s21-117,66-181C598.3,82.3,625.3,70.3,661.3,82.3z"/>
	<path class="st7" d="M505.3,82.3c3,20,13,167,13,184s6,5,5,0s8-146,13-184C532.3,76.3,509.3,77.3,505.3,82.3z"/>
	<g>
		<g>
			<path class="st6" d="M537.9,245.5c0.2,3.1-1.4,5.6-2.3,8.5c-0.8,2.5-1.3,5.2-1.8,7.8c-0.4,1.9,2.5,2.7,2.9,0.8
				c0.7-2.9,1.2-6,2.2-8.8c1-2.8,2.2-5.2,2.1-8.2C540.8,243.6,537.8,243.6,537.9,245.5L537.9,245.5z"/>
		</g>
	</g>
	<g>
		<g>
			<path class="st6" d="M531.2,262.7c0,0.3,0,0.5,0,0.8c0,0.8,0.7,1.5,1.5,1.5c0.8,0,1.5-0.7,1.5-1.5c0-0.3,0-0.5,0-0.8
				c0-0.8-0.7-1.5-1.5-1.5C531.9,261.3,531.2,261.9,531.2,262.7L531.2,262.7z"/>
		</g>
	</g>
</g>
<g id="Layer_4">
	<path class="st1" d="M443.3,82.3c26,33,63,144,66,181c3.1,37.9,4,7,4,2c-2-28-11-123-39-183C464.3,76.3,444.3,80.3,443.3,82.3z"/>
	<path class="st3" d="M598.3,82.3c-26,33-63,144-66,181c-3.1,37.9-4,7-4,2c2-28,11-123,39-183C577.3,76.3,597.3,80.3,598.3,82.3z"/>
</g>
<g id="Layer_5">
	<path class="st4" d="M474.3,82.3c22,44,38,159,39,182s5,2,5,2s-4-113-13-184C501.3,77.3,479.3,77.3,474.3,82.3z"/>
	<path class="st2" d="M567.3,82.3c-22,44-38,159-39,182s-5,2-5,2s4-113,13-184C540.3,77.3,562.3,77.3,567.3,82.3z"/>
</g>
<g id="Layer_1">
	<path class="st8" d="M520.8,421.8"/>
	<g>
		<g>
			<g>
				<path class="st9" d="M231.1,252.4c2.4,1.6,4.7,3.3,7,4.9l6.9,5.1c2.3,1.7,4.5,3.5,6.8,5.2c2.2,1.8,4.5,3.5,6.7,5.3
					c8.8,7.1,17.5,14.4,26,21.9c8.5,7.5,16.9,15.1,25.1,22.9l6.2,5.8l6.1,5.9c4.1,3.9,8.1,7.9,12.1,11.9l40.5,40l-50.7-25.6
					c-0.7-0.4-1.8-0.9-2.7-1.3c-1-0.4-2-0.9-3-1.3c-2-0.9-4-1.7-6.1-2.4c-4.1-1.5-8.2-2.9-12.3-3.9c-4.1-1-8.3-1.9-12.4-2.3
					c-4.1-0.4-8.2-0.4-12.1,0l-3.9,0.4l-1.9-1.9l-5.1-5l-5-5.1c-1.7-1.7-3.3-3.4-5-5.1l-2.5-2.6l-2.4-2.6c-3.2-3.5-6.5-6.9-9.6-10.5
					c-3.2-3.6-6.3-7.2-9.3-10.9l0.7-0.8l21.6,18.3l21.6,18.4l-0.7-0.2c4.7-0.9,9.4-1.2,14.1-1c4.7,0.3,9.4,0.9,13.9,1.9
					c4.6,1,9.1,2.3,13.5,3.8c4.4,1.5,8.8,3.2,13,5.2l-1.1,1.6c-8.1-7.9-16.2-15.8-24.2-23.8l-24.2-23.8l-24.2-23.8l-24.1-23.9
					L231.1,252.4z"/>
				<path class="st9" d="M399.7,160.8l29.4,51h-58.9L399.7,160.8 M399.7,144.8l-43.3,75H443L399.7,144.8L399.7,144.8z"/>
				<path class="st9" d="M358.3,244.9c-3,5.6-7.8,15.4-10.6,21.2c-2.7,5.8-5.4,11.7-7.8,17.7c-2.4,6-4.7,12-6.7,18.2
					c-1.9,6.2-3.6,12.4-4.6,18.8c0.1-6.5,1-13,2.1-19.4c1.1-6.4,2.7-12.8,4.3-19.1c1.7-6.3,3.5-12.6,5.5-18.8
					c2-6.3,4.1-12.4,6.4-18.7L358.3,244.9z"/>
				<path class="st9" d="M449.8,244.7c5,12.1,9.5,24.3,13.9,36.6c4.3,12.3,8.5,24.6,12.2,37.1c3.7,12.5,7.2,25,9.8,37.8
					c2.7,12.7,4.9,25.6,5.5,38.5c-1.4-12.9-4.5-25.5-7.9-37.9c-3.5-12.4-7.7-24.7-12.2-36.8c-4.5-12.1-9.3-24.1-14.4-35.9
					c-5.1-11.8-12.4-27.7-18-39.2L449.8,244.7z"/>
				<rect x="353.2" y="244.8" class="st9" width="89" height="7"/>
				<path class="st9" d="M192.7,118.7c-0.7-0.8-1.7-1.7-2.7-2.5c-0.9-0.8-1.9-1.7-2.9-2.5c-2-1.6-4-3.2-6.1-4.7
					c-4.2-3.1-8.5-5.9-12.9-8.6c-8.9-5.4-18.2-10.2-27.7-14.4c-9.5-4.3-19.3-8-29.2-11.2c-9.9-3.3-20-6.1-30.2-8.5l0,0l-28.2-6.9
					l29,0l171.5,0.1l42.9,0.1l5.4,0c1.9,0,3.7,0.1,5.6,0.2c3.7,0.3,7.3,0.7,10.9,1.2c7.2,1,14.3,2.5,21.4,4.4
					c28.1,7.6,54.4,21.3,76.7,39.8c22.4,18.5,40.8,41.3,55.1,66.4c14.3,25,24.9,52.1,32.4,79.8c3.7,13.9,6.8,27.9,9.2,42
					c0.6,3.5,1.3,7.1,1.7,10.6l1.5,10.6c0.9,7.1,1.7,14.2,2.3,21.4c2.7,28.5,3.2,57.2,2.4,85.8c-0.3-14.3-0.5-28.6-1.5-42.8
					l-0.3-5.3l-0.4-5.3l-0.8-10.7c-0.7-7.1-1.3-14.2-2.2-21.3c-0.8-7.1-1.9-14.1-2.8-21.2l-1.7-10.6c-0.5-3.5-1.3-7-1.9-10.5
					c-2.7-14-5.9-27.9-9.8-41.5c-7.8-27.3-18.3-53.9-32.7-78.4c-14.2-24.5-32.5-46.7-54.4-64.4c-5.5-4.4-11.2-8.6-17.1-12.5
					c-5.9-3.8-12-7.4-18.3-10.6c-12.5-6.4-25.7-11.5-39.3-15.1c-6.8-1.8-13.7-3.2-20.6-4.2c-3.5-0.5-7-0.9-10.4-1.1
					c-1.7-0.1-3.5-0.2-5.2-0.2l-5.3,0l-42.9,0.1L81.7,66.3l0.8-6.9l0,0c10.4,2.4,20.7,5.3,30.8,8.6c10.1,3.3,20.2,7.1,29.9,11.5
					c9.8,4.3,19.3,9.3,28.5,14.9c4.6,2.8,9.1,5.8,13.4,9c2.2,1.6,4.3,3.3,6.4,5c1,0.9,2.1,1.7,3.1,2.7c1,0.9,2,1.8,3.1,2.9
					L192.7,118.7z"/>
				<polygon class="st9" points="189.7,145.3 194.7,350.3 184.7,350.3 				"/>
				<g>
					<polygon class="st9" points="161.7,134.3 161.7,134.3 161.7,134.3 					"/>
					<path class="st9" d="M304.7,150.4c-0.8-6.4-3.2-12.6-6.8-18c-1.8-2.7-3.9-5.2-6.3-7.5c-1.2-1.1-2.5-2.2-3.9-3.2
						c-1.4-1-2.9-2-4.6-2.8c-3.3-1.6-6.9-2.5-10.5-2.8l-8.8-0.4l-34-1.5l-44.5-1.9c-0.1,0.4-2.7,6.5-23,22l67.5-2.9l34-1.5l8.2-0.4
						c2,0,4.1,0.3,6,1c1.8,0.7,3.8,1.9,5.7,3.4c1.9,1.5,3.6,3.2,5.1,5.1c3,3.8,5.2,8.2,6.2,13.1c1.1,4.8,1,10,0.1,15.1
						c-0.9,5.1-2.8,10.2-5.1,15.1c-2.4,4.9-5.3,9.6-8.5,14.1c-6.5,9-14.2,17.2-22.5,24.9c-8.3,7.7-17.1,14.8-26.2,21.6
						c9.6-6,19-12.4,28-19.5c9-7.1,17.5-14.8,25.1-23.6c3.8-4.4,7.3-9.1,10.3-14.2c3-5.1,5.6-10.6,7.2-16.5
						C304.9,163.1,305.6,156.7,304.7,150.4z"/>
				</g>
				<g>
					<g>
						<path class="st9" d="M811.1,254.1l-14.1,14.6L783,283.3l-28.3,29.1c-9.5,9.7-18.9,19.4-28.4,29c-9.5,9.6-19,19.2-28.4,28.9
							l-4.9-6.9c2.7-1.4,5.2-2.5,7.9-3.7c2.6-1.1,5.3-2.2,8-3.2c5.4-2,10.9-3.7,16.5-5c5.6-1.3,11.4-2.1,17.3-2.4
							c5.9-0.1,11.9,0.3,17.8,1.6l-4.1,1.1c4.4-3.6,8.8-7.1,13.3-10.6l6.7-5.2l6.7-5.2c2.2-1.7,4.5-3.4,6.8-5.1
							c2.3-1.7,4.5-3.4,6.8-5c4.6-3.3,9.2-6.6,13.9-9.8l0.7,0.8c-3.8,4.2-7.8,8.3-11.8,12.3c-2,2-4,4-6,6c-2,2-4,4-6.1,5.9l-6.1,5.9
							l-6.2,5.8c-4.1,3.9-8.3,7.7-12.4,11.5l-1.6,1.5l-2.5-0.4c-5-0.8-10.1-1-15.3-0.7c-5.2,0.4-10.4,1.1-15.7,2.1
							c-5.2,1.1-10.4,2.4-15.6,4c-2.6,0.8-5.1,1.7-7.7,2.6c-2.5,0.9-5.1,2-7.4,3l-23.8,10.6l18.8-17.5c9.9-9.2,19.7-18.5,29.5-27.8
							c9.8-9.3,19.7-18.5,29.6-27.8l29.7-27.6l14.9-13.8l14.9-13.8L811.1,254.1z"/>
					</g>
					<g>
						<path class="st9" d="M641.8,161.8l29.4,51h-58.9L641.8,161.8 M641.8,145.8l-43.3,75h86.6L641.8,145.8L641.8,145.8z"/>
					</g>
					<g>
						<path class="st9" d="M683.2,245.9c3,5.6,7.8,15.4,10.6,21.2c2.7,5.8,5.4,11.7,7.8,17.7c2.4,6,4.7,12,6.7,18.2
							c1.9,6.2,3.6,12.4,4.6,18.8c-0.1-6.5-1-13-2.1-19.4c-1.1-6.4-2.7-12.8-4.3-19.1c-1.7-6.3-3.5-12.6-5.5-18.8
							c-2-6.3-4.1-12.4-6.4-18.7L683.2,245.9z"/>
					</g>
					<g>
						<path class="st9" d="M591.7,245.7c-5,12.1-9.5,24.3-13.9,36.6c-4.3,12.3-8.5,24.6-12.2,37.1c-3.7,12.5-7.2,25-9.8,37.8
							c-2.7,12.7-4.9,25.6-5.5,38.5c1.4-12.9,4.5-25.5,7.9-37.9c3.5-12.4,7.7-24.7,12.2-36.8c4.5-12.1,9.3-24.1,14.4-35.9
							c5.1-11.8,12.4-27.7,18-39.2L591.7,245.7z"/>
					</g>
					<g>
						<rect x="599.3" y="245.8" class="st9" width="89" height="7"/>
					</g>
					<g>
						<path class="st9" d="M843.8,114.9c1.1-1.1,2-2,3.1-2.9c1-0.9,2.1-1.8,3.1-2.7c2.1-1.7,4.2-3.4,6.4-5c4.4-3.2,8.8-6.2,13.4-9
							c9.2-5.6,18.7-10.5,28.5-14.9c9.8-4.4,19.8-8.1,29.9-11.5c10.1-3.3,20.4-6.2,30.8-8.6l0,0l0.8,6.9l-171.6-0.1l-42.9-0.1
							l-5.3,0c-1.7,0-3.4,0.1-5.2,0.2c-3.5,0.2-7,0.6-10.4,1.1c-6.9,1-13.8,2.4-20.6,4.2c-13.6,3.6-26.8,8.7-39.3,15.1
							c-6.3,3.2-12.4,6.7-18.3,10.6c-5.9,3.8-11.6,8-17.1,12.5c-21.9,17.8-40.2,39.9-54.4,64.4c-14.3,24.5-24.9,51.1-32.7,78.4
							c-3.9,13.7-7.1,27.6-9.8,41.5c-0.6,3.5-1.4,7-1.9,10.5l-1.7,10.6c-0.9,7.1-2,14.1-2.8,21.2c-0.9,7.1-1.5,14.2-2.2,21.3
							l-0.8,10.7l-0.4,5.3l-0.3,5.3c-1,14.3-1.2,28.5-1.5,42.8c-0.8-28.6-0.3-57.2,2.4-85.8c0.6-7.1,1.5-14.3,2.3-21.4l1.5-10.6
							c0.5-3.6,1.2-7.1,1.7-10.6c2.5-14.1,5.5-28.2,9.2-42c7.5-27.7,18-54.8,32.4-79.8c14.3-25.1,32.7-47.9,55.1-66.4
							c22.3-18.5,48.6-32.2,76.7-39.8c7-1.9,14.1-3.4,21.4-4.4c3.6-0.5,7.2-0.9,10.9-1.2c1.8-0.1,3.7-0.2,5.6-0.2l5.4,0l42.9-0.1
							l171.5-0.1l29,0l-28.2,6.9l0,0c-10.2,2.4-20.3,5.2-30.2,8.5c-9.9,3.3-19.7,7-29.2,11.2c-9.5,4.2-18.8,9-27.7,14.4
							c-4.4,2.7-8.8,5.6-12.9,8.6c-2.1,1.5-4.1,3.1-6.1,4.7c-1,0.8-2,1.6-2.9,2.5c-0.9,0.8-1.9,1.7-2.7,2.5L843.8,114.9z"/>
					</g>
					<g>
						<polygon class="st9" points="851.8,146.3 856.8,351.3 846.8,351.3 						"/>
					</g>
					<g>
						<path class="st9" d="M752.8,139.9c1.5-1.9,3.2-3.6,5.1-5.1c1.9-1.5,3.9-2.7,5.7-3.4c1.9-0.7,3.9-1,6-1l8.2,0.4l34,1.5
							l67.5,2.9c-20.3-15.5-22.8-21.6-23-22l-44.5,1.9l-34,1.5l-8.8,0.4c-3.6,0.3-7.2,1.2-10.5,2.8c-1.6,0.8-3.2,1.8-4.6,2.8
							c-1.4,1-2.7,2.1-3.9,3.2c-2.4,2.3-4.5,4.8-6.3,7.5c-3.6,5.4-6,11.6-6.8,18c-0.9,6.4-0.2,12.8,1.4,18.7
							c1.6,5.9,4.2,11.4,7.2,16.5c3,5.1,6.5,9.8,10.3,14.2c7.6,8.8,16.1,16.5,25.1,23.6c9,7.1,18.4,13.5,28,19.5
							c-9.1-6.8-17.9-13.9-26.2-21.6c-8.3-7.7-16-15.9-22.5-24.9c-3.2-4.5-6.2-9.2-8.5-14.1c-2.4-4.9-4.2-10-5.1-15.1
							c-1-5.1-1-10.3,0.1-15.1C747.6,148.2,749.8,143.7,752.8,139.9z"/>
					</g>
				</g>
				<g>
					<path class="st9" d="M521.9,269c-10.5,0-18.9-5.9-19-6l1.8-2.4c0.7,0.5,17.3,12.2,32.2,0.1l1.9,2.3
						C533.1,267.5,527.2,269,521.9,269z"/>
				</g>
				<g>
					<g>
						<path class="st9" d="M505.4,273.1c5.2,8.5,20.4,4.3,28.2,2.3c-1-3.5-1.9-7.1-2.9-10.6c-3.6,1.5-7.2,4-9,7.7
							c-0.8,1.7-1.2,3.5-0.8,5.3c0.4,2,1.7,2.9,2.5,4.5c-0.2-1.4-0.4-2.8-0.6-4.2c-0.3,1.1-2.4,4.8-2.6,7.6
							c-0.2,3.6,0.2,7.2-0.1,10.9c-0.4,3.5-1,6.2-2.2,9.4c-1.3,3.7-0.9,7.7-2.3,11.4c3.4-0.4,6.7-0.9,10.1-1.3
							c-1.2-2.1-0.7-5.2-0.7-7.5c0-3.1,0-6.1,0-9.2c0-6.4-0.5-13,0.7-19.3c0.5-2.6-0.7-6.3-3.8-6.8c-4.3-0.7-9.3-1.2-12.3,2.5
							c-3.6,4.5-0.7,10.4,0.2,15.4c1.1,6,1.6,12,2.9,18c1.4,6.5,3.5,12.2,3,19c-0.5,7.1,10.5,7,11,0c0.6-9-2.6-16.8-4.1-25.5
							c-0.7-4.2-1.2-8.4-1.9-12.6c-0.3-1.7-0.3-4.8-1.3-6.2c-0.1-2.5-1.1-2.5-3-0.1c0.8,0,1.6,0,2.5,0.1c-1.3-2.3-2.6-4.5-3.8-6.8
							c-1.6,7.9-1.2,16-1.1,24.1c0,6.6-1.1,14.4,2.2,20.4c2.5,4.4,8.5,2.9,10.1-1.3c1.5-4.2,1.5-8.6,2.9-12.8
							c1.6-4.5,2-9.9,2.2-14.6c0.1-2.1-0.4-4.4-0.1-6.5c0.3-2,1.8-3.3,2.2-5.4c0.3-1.8,0-3.5-0.9-5c-0.3-0.5-2.5-3.6-1.1-0.3
							c1.1,2.6,0.4,0.5,2.3-0.3c6.4-2.6,4.1-12.4-2.9-10.6c-3.2,0.8-6.5,1.5-9.8,1.8c-1.5,0.1-2.9,0.2-4.4,0.2c-0.6,0-1.2,0-1.8,0
							c-1.1-0.2-1,0,0.2,0.7C511.2,261.5,501.7,267,505.4,273.1L505.4,273.1z"/>
					</g>
				</g>
				<g>
					<g>
						<path class="st9" d="M522.2,373.3c0.5-7.6-0.1-14.9-1-22.5c-0.5-3.7-0.7-7.4-0.8-11.2c0-1-0.6-4.4,0.5-5.3
							c-0.6,0.5,3.1,0.1,2.9,0.1c-0.4-0.9-0.8-1.8-1.2-2.7c-3.8,2.3-4,4.4-3.7,8.7c0.1,2.6,0.2,5.1,0.5,7.7c0.2,1.8,1.6,4.7,1,6.3
							c1,0.1,2,0.3,2.9,0.4c0.3-6.4,0-13.2,1.6-19.5c0.2-1-0.5-1.9-1.4-1.9c-1.2,0-1.4,0-2.4,0.7c-1.6,1-0.1,3.6,1.5,2.6
							c0.3-0.1,0.6-0.2,0.9-0.3c-0.5-0.6-1-1.3-1.4-1.9c-1.7,6.6-1.4,13.6-1.7,20.3c-0.1,1.8,2.4,1.9,2.9,0.4
							c0.9-2.5-0.7-5.4-0.9-7.9c-0.4-3.6-1.9-10.7,1.8-13c1.5-0.9,0.5-3.1-1.2-2.7c-1.9,0.4-3.5-1.4-5,0.6
							c-1.9,2.3-0.5,9.5-0.3,12.1c0.6,9.8,2.3,19.1,1.6,29C519,375.2,522,375.2,522.2,373.3L522.2,373.3z"/>
					</g>
				</g>
			</g>
			<g>
				<g>
					<path class="st9" d="M507.3,267.3c1.9,0,1.9-3,0-3C505.3,264.3,505.3,267.3,507.3,267.3L507.3,267.3z"/>
				</g>
			</g>
		</g>
		<g>
			<g>
				<g>
					<path class="st9" d="M520.7,376.3c1.9,0,1.9-3,0-3C518.8,373.3,518.8,376.3,520.7,376.3L520.7,376.3z"/>
				</g>
			</g>
		</g>
	</g>
</g>
</svg>
