<?xml version="1.0" encoding="utf-8"?>
<!-- Generator: Adobe Illustrator 22.0.0, SVG Export Plug-In . SVG Version: 6.00 Build 0)  -->
<svg version="1.1" id="Layer_1" xmlns="http://www.w3.org/2000/svg" xmlns:xlink="http://www.w3.org/1999/xlink" x="0px" y="0px"
	 viewBox="0 0 446.5 182" style="enable-background:new 0 0 446.5 182;" xml:space="preserve">
<style type="text/css">
	.st0{fill:#D10D0D;}
	.st1{stroke:#000000;stroke-width:3;stroke-miterlimit:10;}
	.st2{fill:#FCFAFA;}
	.st3{fill:none;}
	.st4{enable-background:new    ;}
</style>
<g>
	<path class="st0" d="M195.4,135.1h-12.8H182c-0.7,0-1.2-0.1-1.6-0.4c-0.4-0.3-0.5-0.6-0.5-1.1c0-0.8,0.4-1.3,1.1-1.5
		c0.6-0.2,1-0.3,1.1-0.4c0.1,0,0.2-0.2,0.3-0.3c0.2-0.3,0.3-0.8,0.3-1.4v-28.8c0-0.7-0.1-1.1-0.3-1.4c-0.1-0.2-0.2-0.3-0.3-0.3
		s-0.5-0.2-1.1-0.4c-0.7-0.2-1.1-0.7-1.1-1.5c0-0.5,0.2-0.8,0.5-1.1c0.4-0.3,0.9-0.4,1.6-0.4h0.7h12.9h1c0.8,0,1.4,0.1,1.9,0.3
		c0.5,0.3,0.7,0.7,0.7,1.2c0,0.8-0.4,1.3-1.3,1.5c-0.7,0.2-1.2,0.3-1.3,0.3c-0.1,0.1-0.3,0.2-0.4,0.3c-0.3,0.3-0.4,0.9-0.4,1.6v33.9
		h-0.4V135.1z M197.7,135.1V132c0.9-0.2,1.6-0.4,2.3-0.6c0.5-0.2,1-0.5,1.5-0.9c0.8-0.6,1.5-1.5,2.3-2.6c0.7-1.1,1.2-2.4,1.6-3.7
		c0.3-1,0.6-1.7,0.8-2.1c0.3-0.3,0.6-0.5,1.1-0.5s0.9,0.2,1.1,0.6c0.1,0.2,0.2,0.6,0.2,1.2v11.7H197.7L197.7,135.1z"/>
	<path class="st0" d="M226.2,98.2c-1,0.3-1.6,0.8-2.1,1.4c-0.4,0.6-0.6,1.4-0.6,2.6v25.7c0,1.6,0.2,2.9,0.7,3.6c0.4,0.6,1,1,2,1.2
		v3.2c-4.2-0.3-7.8-2-10.7-4.8c-3.7-3.7-5.7-8.9-5.7-15.5c0-3.3,0.5-6.4,1.4-9.1c1-2.7,2.5-4.9,4.4-6.9c1.4-1.4,3.1-2.6,4.7-3.3
		c1.7-0.7,3.6-1.1,5.7-1.2v3.1C226,98.2,226.2,98.2,226.2,98.2z M228.5,98.2v-3.1c2.1,0.1,4,0.5,5.7,1.2s3.3,1.9,4.8,3.3
		c3.9,3.8,5.9,9.2,5.9,15.9c0,6.7-1.9,11.8-5.7,15.5c-2.9,2.9-6.5,4.5-10.7,4.8v-3.2c0.5-0.1,0.9-0.3,1.1-0.4
		c0.3-0.2,0.5-0.4,0.7-0.8c0.5-0.8,0.8-2,0.8-3.6v-25.7c0-1-0.2-1.9-0.5-2.4c-0.2-0.4-0.5-0.7-0.8-0.9
		C229.7,98.6,229.2,98.4,228.5,98.2z"/>
	<path class="st0" d="M264.2,95v3.5c-1.1,0.2-2,0.7-2.6,1.5c-0.5,0.8-0.8,2-0.8,3.5v23.8v1.2c0,0.4,0.1,0.9,0.3,1.4
		c0.2,0.5,0.4,0.9,0.7,1.2c0.3,0.4,0.6,0.6,1,0.8c0.3,0.2,0.8,0.3,1.4,0.3v3.5c-3.7,0-7-0.9-9.7-2.9c-2.4-1.7-4.2-4-5.5-6.9
		c-1.2-2.9-1.9-6.3-1.9-10.3c0-2.9,0.4-5.6,1.2-8.1s2-4.6,3.5-6.5s3.4-3.4,5.6-4.5s4.2-1.6,6.2-1.6L264.2,95z M266.6,98.6v-3.5
		c0.9,0.1,1.7,0.3,2.3,0.5c0.6,0.2,1.6,0.5,3.2,1.1c1,0.3,1.6,0.5,2,0.5c0.5,0,1-0.2,1.2-0.7l0.4-0.7c0.2-0.4,0.6-0.7,1.3-0.7
		c0.5,0,0.9,0.1,1.2,0.4s0.4,0.7,0.4,1.3v11.9c0,0.7-0.2,1.3-0.5,1.6c-0.3,0.3-0.7,0.5-1.1,0.5s-0.8-0.1-1.1-0.4
		c-0.3-0.3-0.5-0.8-0.7-1.4c-0.4-1.5-0.8-2.7-1.1-3.6c-0.8-1.9-1.7-3.3-2.8-4.4c-0.7-0.7-1.4-1.3-2.2-1.7
		C268.2,98.9,267.4,98.7,266.6,98.6z M266.6,135.9v-3.5c1.5-0.1,3.1-0.7,4.7-1.7c0.9-0.5,1.6-1.3,2.4-2.3c0.7-0.9,1.2-2,1.5-3.1
		c0.2-0.6,0.4-1,0.7-1.3s0.6-0.4,1-0.4s0.8,0.2,1.1,0.5s0.4,0.8,0.4,1.3c0,0.8-0.3,2-1,3.1c-0.6,1.2-1.5,2.4-2.6,3.4
		c-1.2,1.2-2.6,2.2-3.9,2.8C269.7,135.2,268.4,135.9,266.6,135.9z"/>
	<path class="st0" d="M299.2,135.1h-12.9h-0.7c-0.7,0-1.2-0.1-1.6-0.4c-0.4-0.3-0.5-0.6-0.5-1.1c0-0.8,0.4-1.3,1.1-1.5
		c0.6-0.2,1-0.3,1.1-0.4c0.1,0,0.2-0.2,0.3-0.3c0.2-0.3,0.3-0.8,0.3-1.4v-28.8c0-0.7-0.1-1.1-0.3-1.4c-0.1-0.2-0.2-0.3-0.3-0.3
		c-0.1,0-0.5-0.2-1.1-0.4c-0.7-0.2-1.1-0.7-1.1-1.5c0-0.5,0.2-0.8,0.5-1.1c0.4-0.3,0.9-0.4,1.6-0.4h0.7h12.9h0.7
		c0.7,0,1.2,0.1,1.6,0.4s0.5,0.6,0.5,1.1c0,0.8-0.4,1.3-1.1,1.5c-0.6,0.2-1,0.3-1.1,0.4c-0.1,0-0.2,0.2-0.3,0.3
		c-0.2,0.3-0.3,0.8-0.3,1.4V130c0,1,0.3,1.7,0.8,1.9l0.9,0.3c0.7,0.2,1.1,0.7,1.1,1.5c0,1-0.7,1.5-2.1,1.5L299.2,135.1L299.2,135.1z
		 M310.6,107.3l8.6,22.7c0.2,0.6,0.5,1,0.7,1.4c0.2,0.3,0.6,0.5,1,0.7s0.6,0.3,0.8,0.4c0.3,0.3,0.4,0.6,0.4,1c0,1-0.7,1.5-2.2,1.5
		h-14.5c-0.7,0-1.2-0.1-1.6-0.4c-0.4-0.3-0.5-0.7-0.5-1.2c0-0.6,0.3-1.1,1-1.4c0.4-0.2,0.7-0.4,0.9-0.5c0.1-0.1,0.2-0.3,0.3-0.6
		c0-0.1-0.1-0.4-0.2-0.9l-3.7-11c-0.3-1-0.5-1.9-0.5-2.6s0.3-1.4,0.8-2.2l6.9-9.7c0.6-0.9,1-1.9,1-2.8c0-0.5-0.1-1-0.4-1.5
		c-0.3-0.4-0.7-0.8-1.1-1l-1-0.4c-0.6-0.3-1-0.7-1-1.3c0-0.5,0.2-0.9,0.6-1.2c0.3-0.2,0.7-0.3,1.3-0.3h10.3c0.7,0,1.2,0.1,1.5,0.4
		c0.4,0.3,0.5,0.7,0.5,1.2c0,0.8-0.4,1.3-1.3,1.7l-1.5,0.6c-0.6,0.2-1.4,0.7-2.4,1.5c-0.7,0.6-1.6,1.6-2.7,3.1L310.6,107.3z"/>
	<path class="st0" d="M339.4,95v3.4c-1.2,0.3-2.1,0.8-2.7,1.5s-0.9,1.5-0.9,2.5c0,0.9,0.3,1.7,0.8,2.5c0.5,0.7,1.3,1.4,2.6,2.1
		c0.8,0.4,2.7,1.2,5.5,2.6c1.7,0.7,3.1,1.4,4,2.1c0.9,0.6,1.9,1.3,2.7,2.3c2.3,2.4,3.4,5.2,3.4,8.5c0,2.5-0.6,4.7-1.9,6.8
		c-1.2,2.1-2.9,3.7-5,4.8c-1.1,0.6-2.4,1.1-3.8,1.4c-1.3,0.3-2.7,0.5-3.8,0.5v-3.3c1.6-0.4,2.9-0.9,3.6-1.6c0.7-0.7,1.1-1.6,1.1-2.9
		s-0.6-2.4-1.7-3.4c-0.7-0.6-2.3-1.4-4.4-2.4c-2.4-1-4-1.7-4.8-2.3c-0.8-0.4-1.7-0.9-2.5-1.5c-3.6-2.6-5.5-6-5.5-10.3
		c0-2.2,0.4-4.2,1.3-6.1s2.2-3.3,3.8-4.4C333.2,96.2,336.1,95.2,339.4,95z M337.9,132.6v3.3c-1.5,0-3.3-0.4-5.2-1.3
		c-0.7-0.3-1.2-0.5-1.4-0.6c-0.3-0.1-0.5-0.1-0.8-0.1c-0.4,0-0.7,0.1-0.8,0.2c-0.2,0.1-0.5,0.4-0.9,0.9c-0.3,0.4-0.7,0.6-1.1,0.6
		c-1,0-1.6-0.8-1.6-2.5v-10.5c0-0.5,0.1-1,0.4-1.3c0.3-0.4,0.7-0.6,1.1-0.6s0.7,0.1,1,0.3c0.2,0.3,0.4,0.7,0.6,1.3
		c0.4,1.6,1,3.2,2,4.6c1,1.4,1.9,2.7,2.9,3.7C335.1,131.6,336.4,132.4,337.9,132.6z M341.7,98.4v-3.2c1.1,0.1,2.2,0.2,3,0.4
		c0.8,0.2,2.1,0.6,3.6,1.3c0.4,0.1,0.7,0.2,0.9,0.2c0.4,0,0.6-0.1,0.8-0.4l0.6-0.8c0.3-0.4,0.7-0.6,1.1-0.6c0.5,0,0.9,0.2,1.1,0.5
		c0.2,0.4,0.3,0.9,0.3,1.7v9.5c0,0.5-0.2,1-0.5,1.3s-0.7,0.5-1.2,0.5c-0.4,0-0.7-0.1-1-0.4c-0.2-0.1-0.3-0.3-0.4-0.5
		s-0.2-0.6-0.3-1.1c-0.2-0.9-0.6-2-1.1-2.9c-0.5-1-1.1-1.9-1.9-2.7C345.5,99.9,343.7,98.8,341.7,98.4z"/>
</g>
<g>
	<path class="st0" d="M117.8,115.9c0-2.1-1.7-3.8-3.8-3.8s-3.8,1.7-3.8,3.8c0,1.4,0.8,2.6,1.9,3.3l-0.7,8h5l-0.7-8
		C117,118.5,117.8,117.3,117.8,115.9z"/>
	<g>
		<g>
			<path class="st1" d="M134.4,86.5c-0.9,0.3-1.8,0.4-2.8,0.2l-13.2-3.3c-2.7-0.7-5.7-0.7-8.4-0.1l-15.4,3.4
				c-0.8,0.2-1.7,0.1-2.5-0.1l-11.9-4v-21c0-8,6.5-14.6,14.6-14.7l37.9-0.3c4-0.1,7.7,1.5,10.5,4.3s4.4,6.5,4.4,10.5v5.2h1.7v2.5
				h-1.7l-0.1,4.2l6.9-2.5V59.2c0-3.7-2.3-9.2-6.4-13.2c-4.1-4-9.4-6.2-15.1-6.2c-0.1,0-0.1,0-0.2,0l-37.9,0.3
				C83,40.2,73.5,49.9,73.5,61.6v26L90,93.1c2,0.7,4.1,0.8,6.1,0.3l15.5-3.5c1.7-0.4,3.5-0.4,5.3,0.1l13.2,3.3
				c2.3,0.6,4.6,0.4,6.8-0.4l10.5-4.1l-1,31c-0.3,3.9-4,7.5-7.5,9.4l-18.6,7.2c-2.6,1.2-9.1,1.3-12.2-0.1l-18.5-7.4
				c-3.7-2-7.5-5.4-8-8.6l-1-18l-7.1-2.2l1.4,20.7v0.3c1,7.6,9.1,12.5,11.5,13.9l18.5,7.4c7.1,2.3,11.9,2.3,18.6,0.1l18.6-7.2
				c4.8-2.6,10.6-8,11.1-15l1.3-41.5L134.4,86.5z"/>
		</g>
		<rect x="145.6" y="65.1" class="st2" width="3" height="4"/>
	</g>
</g>
<rect x="178.4" y="49.7" class="st3" width="207.1" height="46.4"/>
<g class="st4">
	<path d="M193.8,47.6v3.3c-1.2,0.3-2.1,0.8-2.7,1.5c-0.6,0.7-0.9,1.5-0.9,2.5c0,0.9,0.3,1.8,0.8,2.5c0.5,0.7,1.3,1.4,2.5,2
		c0.8,0.4,2.6,1.3,5.4,2.5c1.7,0.7,3,1.4,4,2c0.9,0.6,1.8,1.3,2.6,2.2c2.2,2.3,3.3,5.1,3.3,8.4c0,2.4-0.6,4.7-1.8,6.7
		c-1.2,2-2.9,3.6-5,4.8c-1.1,0.6-2.4,1.1-3.7,1.4c-1.4,0.3-2.6,0.5-3.8,0.5v-3.2c1.6-0.4,2.8-0.9,3.6-1.7c0.7-0.7,1.1-1.7,1.1-2.9
		c0-1.3-0.6-2.4-1.7-3.3c-0.8-0.6-2.2-1.4-4.3-2.3c-2.3-1-3.9-1.7-4.8-2.2c-0.9-0.4-1.7-0.9-2.5-1.5c-3.5-2.5-5.3-5.9-5.3-10.1
		c0-2.2,0.4-4.1,1.3-6c0.9-1.8,2.1-3.3,3.7-4.4C187.8,48.7,190.5,47.8,193.8,47.6z M192.3,84.6v3.2c-1.5,0-3.3-0.4-5.1-1.3
		c-0.7-0.3-1.2-0.5-1.4-0.6c-0.3-0.1-0.5-0.1-0.8-0.1c-0.4,0-0.7,0.1-0.8,0.2c-0.2,0.1-0.5,0.4-0.9,0.9c-0.3,0.4-0.7,0.6-1.1,0.6
		c-1.1,0-1.6-0.8-1.6-2.4V74.7c0-0.5,0.2-1,0.5-1.3c0.3-0.4,0.7-0.6,1.1-0.6c0.4,0,0.7,0.1,1,0.4c0.2,0.3,0.4,0.7,0.6,1.3
		c0.4,1.6,1.1,3.1,1.9,4.6s1.8,2.6,2.9,3.6C189.6,83.7,190.9,84.3,192.3,84.6z M196,50.9v-3.1c1.1,0.1,2.1,0.2,2.9,0.4
		c0.8,0.2,2,0.6,3.5,1.3c0.4,0.2,0.7,0.2,0.9,0.2c0.4,0,0.6-0.1,0.8-0.4l0.6-0.8c0.3-0.4,0.7-0.6,1.1-0.6c0.5,0,0.9,0.2,1.1,0.6
		c0.2,0.4,0.4,0.9,0.4,1.7v9.3c0,0.5-0.2,1-0.5,1.3c-0.3,0.3-0.7,0.5-1.2,0.5c-0.4,0-0.7-0.1-1-0.4c-0.2-0.2-0.3-0.3-0.4-0.6
		c-0.1-0.2-0.2-0.6-0.3-1.1c-0.2-0.9-0.6-1.9-1.1-2.9s-1.1-1.9-1.8-2.6C199.8,52.4,198.1,51.4,196,50.9z"/>
	<path d="M234.1,69.3v12.3c0,0.7,0.1,1.3,0.4,1.6c0.2,0.2,0.3,0.3,0.4,0.4c0.1,0,0.6,0.2,1.3,0.4c0.9,0.2,1.4,0.7,1.4,1.6
		c0,0.5-0.3,1-0.8,1.2c-0.3,0.2-0.9,0.3-1.8,0.3h-1h-12.6h-0.9c-0.8,0-1.4-0.1-1.8-0.3c-0.5-0.3-0.7-0.7-0.7-1.2
		c0-0.8,0.5-1.3,1.4-1.6c0.7-0.2,1.2-0.3,1.3-0.4c0.1,0,0.3-0.2,0.4-0.4c0.3-0.3,0.4-0.8,0.4-1.6v-9.6l-8-19.1
		c-0.3-0.7-0.7-1.2-1.3-1.6c-0.5-0.3-0.8-0.6-1-0.8s-0.2-0.5-0.2-0.8c0-1,0.7-1.5,2.2-1.5h13.9c0.7,0,1.2,0.1,1.5,0.3
		c0.5,0.3,0.7,0.7,0.7,1.2c0,0.6-0.3,1.1-0.8,1.4l-0.8,0.5c-0.3,0.2-0.5,0.5-0.5,0.9c0,0.5,0.1,0.9,0.3,1.4L234.1,69.3z M235.3,66.6
		l-1.6-3.7l3-6.7c0.2-0.6,0.4-1.3,0.4-2.3c0-1.1-0.6-1.9-1.8-2.4c-0.7-0.3-1.1-0.5-1.3-0.7c-0.2-0.2-0.3-0.5-0.3-0.9
		c0-0.5,0.2-0.9,0.5-1.2c0.2-0.2,0.5-0.3,0.8-0.3s0.8-0.1,1.5-0.1h7c1.3,0,2,0.5,2,1.6c0,0.4-0.1,0.7-0.3,0.9s-0.5,0.4-1,0.7
		c-0.9,0.4-1.6,0.8-2,1.2c-0.6,0.6-1,1.3-1.4,2.1l-0.7,1.4L235.3,66.6z"/>
	<path d="M260.9,47.6v3.3c-1.2,0.3-2.1,0.8-2.7,1.5c-0.6,0.7-0.9,1.5-0.9,2.5c0,0.9,0.3,1.8,0.8,2.5c0.5,0.7,1.3,1.4,2.5,2
		c0.8,0.4,2.6,1.3,5.4,2.5c1.7,0.7,3,1.4,4,2c0.9,0.6,1.8,1.3,2.6,2.2c2.2,2.3,3.3,5.1,3.3,8.4c0,2.4-0.6,4.7-1.8,6.7
		c-1.2,2-2.9,3.6-5,4.8c-1.1,0.6-2.4,1.1-3.7,1.4c-1.3,0.3-2.6,0.5-3.8,0.5v-3.2c1.6-0.4,2.8-0.9,3.6-1.7c0.7-0.7,1.1-1.7,1.1-2.9
		c0-1.3-0.6-2.4-1.7-3.3c-0.8-0.6-2.2-1.4-4.3-2.3c-2.3-1-3.9-1.7-4.8-2.2s-1.7-0.9-2.5-1.5c-3.5-2.5-5.3-5.9-5.3-10.1
		c0-2.2,0.4-4.1,1.3-6c0.9-1.8,2.1-3.3,3.7-4.4C254.9,48.7,257.6,47.8,260.9,47.6z M259.4,84.6v3.2c-1.5,0-3.3-0.4-5.1-1.3
		c-0.7-0.3-1.2-0.5-1.4-0.6c-0.3-0.1-0.5-0.1-0.8-0.1c-0.4,0-0.7,0.1-0.8,0.2c-0.2,0.1-0.5,0.4-0.9,0.9c-0.3,0.4-0.7,0.6-1.1,0.6
		c-1.1,0-1.6-0.8-1.6-2.4V74.7c0-0.5,0.2-1,0.5-1.3c0.3-0.4,0.7-0.6,1.1-0.6c0.4,0,0.7,0.1,1,0.4c0.2,0.3,0.4,0.7,0.6,1.3
		c0.4,1.6,1.1,3.1,1.9,4.6s1.8,2.6,2.9,3.6C256.7,83.7,258,84.3,259.4,84.6z M263.1,50.9v-3.1c1.1,0.1,2.1,0.2,2.9,0.4
		c0.8,0.2,2,0.6,3.5,1.3c0.4,0.2,0.7,0.2,0.9,0.2c0.4,0,0.6-0.1,0.8-0.4l0.6-0.8c0.3-0.4,0.7-0.6,1.1-0.6c0.5,0,0.9,0.2,1.1,0.6
		c0.2,0.4,0.4,0.9,0.4,1.7v9.3c0,0.5-0.2,1-0.5,1.3c-0.3,0.3-0.7,0.5-1.2,0.5c-0.4,0-0.7-0.1-1-0.4c-0.2-0.2-0.3-0.3-0.4-0.6
		c-0.1-0.2-0.2-0.6-0.3-1.1c-0.2-0.9-0.6-1.9-1.1-2.9s-1.1-1.9-1.8-2.6C266.9,52.4,265.2,51.4,263.1,50.9z"/>
	<path d="M279.2,48.4h7.4v3.4c-0.9,0.5-1.6,1.2-2.1,2c-0.8,1.3-1.4,2.8-1.6,4.6l-0.3,1.7c-0.1,0.5-0.3,1-0.6,1.3
		c-0.3,0.3-0.7,0.5-1.2,0.5c-0.5,0-0.9-0.2-1.2-0.5s-0.5-0.8-0.5-1.3V48.4z M301.5,48.4v33.3c0,0.7,0.1,1.3,0.4,1.6
		c0.2,0.2,0.3,0.3,0.4,0.4c0.1,0,0.6,0.2,1.3,0.4c0.9,0.2,1.4,0.7,1.4,1.6c0,0.5-0.2,0.9-0.7,1.2c-0.4,0.2-1,0.3-1.8,0.3h-0.9h-12.6
		H288c-0.8,0-1.5-0.1-1.9-0.4c-0.4-0.3-0.6-0.6-0.6-1.1c0-0.8,0.5-1.3,1.4-1.6c0.7-0.2,1.2-0.3,1.3-0.4c0.1,0,0.3-0.2,0.4-0.4
		c0.3-0.3,0.4-0.8,0.4-1.6V48.4H301.5z M311.3,48.4V60c0,0.5-0.2,1-0.5,1.3s-0.7,0.5-1.2,0.5c-0.5,0-0.9-0.2-1.2-0.5
		c-0.3-0.3-0.5-0.7-0.6-1.3l-0.3-1.7c-0.3-1.8-0.8-3.3-1.6-4.6c-0.5-0.8-1.2-1.4-2.1-2v-3.4H311.3z"/>
	<path d="M330.2,48.4v38.7h-12.6h-0.7c-0.7,0-1.2-0.1-1.6-0.4c-0.4-0.3-0.6-0.6-0.6-1.1c0-0.8,0.4-1.3,1.1-1.5
		c0.6-0.2,1-0.3,1.1-0.4c0.1,0,0.2-0.2,0.3-0.3c0.2-0.3,0.3-0.8,0.3-1.4V53.6c0-0.7-0.1-1.1-0.3-1.4c-0.1-0.2-0.2-0.3-0.3-0.3
		c-0.1,0-0.5-0.2-1.1-0.4c-0.8-0.2-1.1-0.8-1.1-1.5c0-0.5,0.2-0.8,0.6-1.1c0.4-0.3,0.9-0.4,1.6-0.4h0.7H330.2z M332.6,69v-3.3
		c1.1-0.5,1.9-1.1,2.4-1.7c0.5-0.6,0.9-1.5,1.2-2.5c0.2-0.7,0.3-1.2,0.6-1.5c0.2-0.3,0.6-0.4,1-0.4c0.6,0,1,0.2,1.2,0.7
		c0.1,0.2,0.2,0.8,0.2,1.7v10.8c0,0.9-0.1,1.5-0.3,1.8s-0.6,0.5-1.1,0.5c-0.4,0-0.8-0.1-1-0.4c-0.2-0.3-0.4-0.7-0.6-1.3
		c-0.3-1.3-0.8-2.3-1.4-3S333.6,69.2,332.6,69z M332.8,48.4h11.4v10c0,0.6-0.1,1-0.3,1.3s-0.6,0.4-1.1,0.4c-0.4,0-0.7-0.1-0.9-0.3
		c-0.2-0.2-0.4-0.5-0.5-1c-0.7-2.2-1.8-3.9-3.2-5s-3.2-1.8-5.4-2.1V48.4z M332.8,87.1V84c1.2-0.2,2.2-0.5,3-0.8s1.6-0.9,2.4-1.6
		c0.8-0.7,1.5-1.4,1.9-2.2c0.5-0.7,0.9-1.7,1.4-3c0.2-0.6,0.4-1,0.7-1.2c0.2-0.2,0.5-0.3,0.9-0.3c0.5,0,0.9,0.2,1.1,0.5
		c0.2,0.3,0.3,0.9,0.3,1.6v10H332.8z"/>
	<path d="M364.3,48.4v33.3c0,0.7,0.1,1.3,0.4,1.6c0.2,0.2,0.3,0.3,0.4,0.4c0.1,0,0.6,0.2,1.3,0.4c0.9,0.2,1.4,0.7,1.4,1.6
		c0,0.5-0.2,0.9-0.7,1.2c-0.4,0.2-1,0.3-1.8,0.3h-1h-12.6h-0.7c-0.7,0-1.2-0.1-1.6-0.4c-0.4-0.3-0.6-0.6-0.6-1.1
		c0-0.8,0.4-1.3,1.1-1.5c0.6-0.2,1-0.3,1.1-0.4c0.1,0,0.2-0.2,0.3-0.3c0.2-0.3,0.3-0.8,0.3-1.4V53.6c0-0.7-0.1-1.1-0.3-1.4
		c-0.1-0.2-0.2-0.3-0.3-0.3c-0.1,0-0.5-0.2-1.1-0.4c-0.8-0.2-1.1-0.8-1.1-1.5c0-0.5,0.2-0.8,0.6-1.1c0.4-0.3,0.9-0.4,1.6-0.4h0.7
		H364.3z M373,68.1c1.7,0.3,3.1,0.6,4,0.9s1.8,0.8,2.5,1.3c0.8,0.6,1.4,1.3,1.8,2.1s0.6,1.7,0.6,2.6v5.9c0,0.6,0.2,0.9,0.6,0.9
		c0.2,0,0.3,0,0.4-0.1c0.1-0.1,0.3-0.3,0.4-0.5c0.5-0.6,1-1,1.4-1c0.3,0,0.6,0.2,1,0.5c0.3,0.3,0.5,0.7,0.5,1c0,0.6-0.3,1.3-0.8,2.1
		c-0.6,0.8-1.3,1.6-2.1,2.3c-0.8,0.6-1.6,1.1-2.5,1.3c-0.9,0.3-2,0.4-3.2,0.4c-2.5,0-4.4-0.7-5.8-2.1c-1.4-1.4-2.1-3.4-2.1-6V75
		c0-1.1,0-1.7,0-1.8c-0.1-0.8-0.4-1.4-0.8-2c-0.5-0.7-1.3-1-2.4-1.2v-3c1-0.2,1.7-0.4,2.2-0.8c0.4-0.3,0.6-0.7,0.8-1.2
		s0.2-1.1,0.2-1.9v-7.5c0-1.2-0.2-2.1-0.7-2.7s-1.3-1-2.5-1.4v-3.1h0.7c2.1,0,3.9,0.1,5.4,0.2c2.2,0.2,4.1,0.9,5.9,2.2
		c2.5,1.8,3.7,4.3,3.7,7.5c0,2.7-0.8,4.8-2.5,6.5c-0.7,0.7-1.5,1.3-2.5,1.8S374.9,67.5,373,68.1z"/>
</g>
</svg>
