<?xml version="1.0" encoding="utf-8"?>
<!-- Generator: Adobe Illustrator 22.0.0, SVG Export Plug-In . SVG Version: 6.00 Build 0)  -->
<svg version="1.1" id="Layer_1" xmlns="http://www.w3.org/2000/svg" xmlns:xlink="http://www.w3.org/1999/xlink" x="0px" y="0px"
	 viewBox="0 0 446.5 182" style="enable-background:new 0 0 446.5 182;" xml:space="preserve">
<style type="text/css">
	.st0{fill:#3A1E08;}
	.st1{opacity:0.98;}
	.st2{fill:#3F2106;stroke:#301803;stroke-width:0.25;stroke-miterlimit:10;}
	.st3{fill:none;stroke:#3F2B0D;stroke-width:2;stroke-miterlimit:10;}
	.st4{fill:none;}
	.st5{fill:#77695C;}
	.st6{fill:#282424;}
	.st7{fill:#E22323;}
</style>
<g>
	<path class="st0" d="M70.2,99c4.1,2.5,10.8,4.5,17.2,4.5c8.5,0,12.9-4,12.9-9.9c0-5.7-3.8-9.1-12.6-12.9c-12-5.2-19.5-12.6-19.5-23
		c0-13,10.2-23.1,27.4-23.1c7.6,0,13.4,1.8,17.1,3.6l-3.2,12.5c-2.8-1.4-7.7-3.4-14.2-3.4c-8.1,0-11.7,4.3-11.7,8.8
		c0,5.7,3.9,8.3,13.7,12.7c12.7,5.7,18.4,13,18.4,23.5c0,13.9-10.5,24-29,24c-7.9,0-15.8-2.2-19.6-4.5L70.2,99z"/>
	<path class="st0" d="M175.6,35.6v13.3h-19.7v66.4h-15.3V48.9H121V35.6H175.6z"/>
	<path class="st0" d="M220.6,35.6l22.3,79.6h-16l-5.7-21h-21.3l-5.5,21h-15.5l22.6-79.6H220.6z M202,82.6h17l-4.8-18.1
		c-1.2-5-2.6-11.4-3.6-16.3h-0.3c-1,5-2.4,11.5-3.5,16.2L202,82.6z"/>
	<path class="st0" d="M253.2,36.7c5.3-0.9,12.7-1.7,20.5-1.7c10,0,30.3,1.2,30.3,22.6c0,9.7-6.2,16.9-13.7,19.8v0.3
		c5.6,2.2,8.7,7.6,10.6,15.6c2.3,9.4,4.3,18.9,5.9,21.9h-15.7c-1.1-2.3-3.1-9.2-5-18.8c-2.1-10.2-5.3-13.5-12.5-13.5h-5.2v32.3
		h-15.2V36.7z M268.5,71.5h6.3c8.7,0,14-5.1,14-12.6c0-10.2-7.7-12.2-13.3-12.2c-3.4,0-5.8,0.2-7,0.6V71.5z"/>
</g>
<g class="st1">
	<path class="st2" d="M130.3,136.9v0.2c-0.2,0-0.3,0-0.4,0s-0.2,0.1-0.3,0.2c-0.1,0.1-0.2,0.3-0.3,0.5s-0.2,0.5-0.3,0.8l-2.2,6.4
		h-0.2l-1.8-5.1l-1.8,5.1h-0.2l-2.4-6.6c-0.1-0.2-0.2-0.4-0.2-0.6s-0.1-0.2-0.1-0.3c-0.1-0.2-0.2-0.3-0.3-0.3s-0.3-0.1-0.5-0.1v-0.2
		h3v0.2H122c-0.2,0-0.4,0-0.5,0.1s-0.2,0.2-0.2,0.3c0,0.1,0.1,0.5,0.3,0.9l1.6,4.5l1.3-3.8l-0.4-1.2c-0.1-0.1-0.1-0.3-0.2-0.4
		c-0.1-0.1-0.1-0.2-0.2-0.3s-0.2-0.1-0.3-0.2c-0.1,0-0.2-0.1-0.4-0.1v-0.2h3.1v0.2h-0.2c-0.2,0-0.4,0-0.5,0.1s-0.1,0.2-0.1,0.4
		c0,0.2,0.1,0.5,0.3,1l1.5,4.3l1.5-4.4c0.1-0.2,0.1-0.5,0.2-0.6s0.1-0.3,0.1-0.4c0-0.2-0.1-0.3-0.2-0.4s-0.4-0.1-0.6-0.1v-0.2H130.3
		z"/>
	<path class="st2" d="M149.2,136.8c0.5,0,1,0.1,1.5,0.3s0.9,0.5,1.2,0.9s0.6,0.8,0.8,1.3s0.3,1,0.3,1.6c0,0.6-0.1,1.2-0.3,1.7
		c-0.2,0.5-0.5,1-0.8,1.3c-0.4,0.4-0.8,0.7-1.2,0.9s-1,0.3-1.5,0.3c-0.5,0-1.1-0.1-1.5-0.3c-0.5-0.2-0.9-0.5-1.2-0.9
		s-0.6-0.8-0.8-1.3c-0.2-0.5-0.3-1.1-0.3-1.7c0-0.6,0.1-1.1,0.3-1.6c0.2-0.5,0.5-0.9,0.8-1.3c0.4-0.4,0.8-0.7,1.3-0.9
		C148.1,136.9,148.6,136.8,149.2,136.8z M149.1,137.2c-0.4,0-0.8,0.1-1.1,0.3c-0.3,0.2-0.6,0.4-0.8,0.7s-0.4,0.7-0.5,1.2
		s-0.2,1-0.2,1.5c0,0.6,0.1,1.1,0.2,1.5s0.3,0.9,0.5,1.2s0.5,0.6,0.8,0.8s0.7,0.3,1.1,0.3c0.4,0,0.7-0.1,1-0.2s0.6-0.4,0.8-0.7
		s0.4-0.7,0.5-1.1c0.1-0.5,0.2-1,0.2-1.6c0-0.6-0.1-1.1-0.2-1.6c-0.1-0.5-0.3-0.9-0.5-1.2s-0.5-0.6-0.8-0.8S149.5,137.2,149.1,137.2
		z"/>
	<path class="st2" d="M172.3,136.8c0.5,0,1,0.1,1.5,0.3s0.9,0.5,1.2,0.9s0.6,0.8,0.8,1.3s0.3,1,0.3,1.6c0,0.6-0.1,1.2-0.3,1.7
		c-0.2,0.5-0.5,1-0.8,1.3c-0.4,0.4-0.8,0.7-1.2,0.9s-1,0.3-1.5,0.3c-0.5,0-1.1-0.1-1.5-0.3c-0.5-0.2-0.9-0.5-1.2-0.9
		s-0.6-0.8-0.8-1.3c-0.2-0.5-0.3-1.1-0.3-1.7c0-0.6,0.1-1.1,0.3-1.6c0.2-0.5,0.5-0.9,0.8-1.3c0.4-0.4,0.8-0.7,1.3-0.9
		C171.2,136.9,171.8,136.8,172.3,136.8z M172.2,137.2c-0.4,0-0.8,0.1-1.1,0.3c-0.3,0.2-0.6,0.4-0.8,0.7s-0.4,0.7-0.5,1.2
		s-0.2,1-0.2,1.5c0,0.6,0.1,1.1,0.2,1.5s0.3,0.9,0.5,1.2s0.5,0.6,0.8,0.8s0.7,0.3,1.1,0.3c0.4,0,0.7-0.1,1-0.2s0.6-0.4,0.8-0.7
		s0.4-0.7,0.5-1.1c0.1-0.5,0.2-1,0.2-1.6c0-0.6-0.1-1.1-0.2-1.6c-0.1-0.5-0.3-0.9-0.5-1.2s-0.5-0.6-0.8-0.8S172.6,137.2,172.2,137.2
		z"/>
	<path class="st2" d="M191.2,144.9v-0.2h0.3c0.1,0,0.3,0,0.4,0c0.1,0,0.2-0.1,0.3-0.2s0.1-0.2,0.2-0.4c0-0.2,0.1-0.4,0.1-0.6v-5.2
		c0-0.5-0.1-0.8-0.2-0.9c-0.2-0.2-0.4-0.3-0.7-0.3h-0.3v-0.2h3.3c1.2,0,2.1,0.1,2.7,0.4c0.6,0.3,1.1,0.7,1.5,1.4
		c0.4,0.6,0.6,1.4,0.6,2.2c0,0.6-0.1,1.1-0.3,1.6s-0.5,0.9-0.9,1.3s-0.8,0.6-1.4,0.8s-1.2,0.3-1.9,0.3H191.2z M193.5,144.3
		c0.5,0.1,0.9,0.2,1.2,0.2c0.5,0,0.9-0.1,1.3-0.3c0.4-0.2,0.7-0.4,1-0.7s0.5-0.7,0.7-1.1s0.2-0.9,0.2-1.5c0-0.6-0.1-1-0.2-1.5
		c-0.2-0.4-0.4-0.8-0.7-1.1s-0.6-0.5-1-0.7c-0.4-0.2-0.8-0.2-1.3-0.2c-0.3,0-0.7,0.1-1.2,0.2V144.3z"/>
	<path class="st2" d="M242.6,136.9v0.2c-0.2,0-0.3,0-0.4,0c-0.1,0-0.2,0.1-0.3,0.2c-0.1,0.1-0.2,0.3-0.3,0.5s-0.2,0.5-0.3,0.8
		l-2.2,6.4h-0.2l-1.8-5.1l-1.8,5.1h-0.2l-2.4-6.6c-0.1-0.2-0.2-0.4-0.2-0.6s-0.1-0.2-0.1-0.3c-0.1-0.2-0.2-0.3-0.3-0.3
		c-0.1-0.1-0.3-0.1-0.5-0.1v-0.2h3v0.2h-0.1c-0.2,0-0.4,0-0.5,0.1s-0.2,0.2-0.2,0.3c0,0.1,0.1,0.5,0.3,0.9l1.6,4.5l1.3-3.8l-0.4-1.2
		c-0.1-0.1-0.1-0.3-0.2-0.4s-0.1-0.2-0.2-0.3s-0.2-0.1-0.3-0.2c-0.1,0-0.2-0.1-0.4-0.1v-0.2h3.1v0.2h-0.2c-0.2,0-0.4,0-0.5,0.1
		s-0.1,0.2-0.1,0.4c0,0.2,0.1,0.5,0.3,1l1.5,4.3l1.5-4.4c0.1-0.2,0.1-0.5,0.2-0.6s0.1-0.3,0.1-0.4c0-0.2-0.1-0.3-0.2-0.4
		s-0.4-0.1-0.6-0.1v-0.2H242.6z"/>
	<path class="st2" d="M261.5,136.8c0.5,0,1,0.1,1.5,0.3s0.9,0.5,1.2,0.9s0.6,0.8,0.8,1.3c0.2,0.5,0.3,1,0.3,1.6
		c0,0.6-0.1,1.2-0.3,1.7c-0.2,0.5-0.5,1-0.8,1.3c-0.4,0.4-0.8,0.7-1.2,0.9s-1,0.3-1.5,0.3c-0.5,0-1.1-0.1-1.5-0.3s-0.9-0.5-1.2-0.9
		s-0.6-0.8-0.8-1.3c-0.2-0.5-0.3-1.1-0.3-1.7c0-0.6,0.1-1.1,0.3-1.6c0.2-0.5,0.5-0.9,0.8-1.3c0.4-0.4,0.8-0.7,1.3-0.9
		S261,136.8,261.5,136.8z M261.4,137.2c-0.4,0-0.8,0.1-1.1,0.3c-0.3,0.2-0.6,0.4-0.8,0.7s-0.4,0.7-0.5,1.2s-0.2,1-0.2,1.5
		c0,0.6,0.1,1.1,0.2,1.5s0.3,0.9,0.5,1.2s0.5,0.6,0.8,0.8s0.7,0.3,1.1,0.3c0.4,0,0.7-0.1,1-0.2s0.6-0.4,0.8-0.7s0.4-0.7,0.5-1.1
		c0.1-0.5,0.2-1,0.2-1.6c0-0.6-0.1-1.1-0.2-1.6s-0.3-0.9-0.5-1.2s-0.5-0.6-0.8-0.8S261.9,137.2,261.4,137.2z"/>
	<path class="st2" d="M288.4,144.9h-2.1l-2.7-3.7c-0.1,0-0.2,0-0.3,0c-0.1,0-0.2,0-0.2,0c-0.1,0-0.1,0-0.2,0s-0.1,0-0.2,0v2.3
		c0,0.3,0,0.5,0.1,0.7s0.1,0.3,0.2,0.4s0.2,0.1,0.3,0.1c0.1,0,0.2,0,0.3,0h0.3v0.2h-3.4v-0.2h0.3c0.3,0,0.6-0.1,0.7-0.3
		c0.1-0.1,0.1-0.4,0.1-0.9v-5.2c0-0.5-0.1-0.8-0.2-0.9c-0.2-0.2-0.4-0.3-0.7-0.3h-0.3v-0.2h2.9c0.4,0,0.8,0,1.1,0
		c0.3,0,0.6,0.1,0.8,0.1s0.4,0.2,0.6,0.3s0.3,0.3,0.5,0.4s0.2,0.3,0.3,0.5s0.1,0.4,0.1,0.6c0,0.5-0.2,0.9-0.5,1.3
		c-0.3,0.4-0.8,0.6-1.5,0.8l1.6,2.3c0.2,0.3,0.4,0.5,0.5,0.7s0.3,0.3,0.4,0.4s0.3,0.2,0.5,0.2c0.2,0,0.4,0.1,0.6,0.1V144.9z
		 M282.7,140.8c0.1,0,0.1,0,0.2,0c0.1,0,0.1,0,0.1,0c0.4,0,0.7,0,1-0.1s0.5-0.2,0.7-0.4s0.3-0.3,0.4-0.6s0.1-0.4,0.1-0.7
		c0-0.2,0-0.5-0.1-0.7s-0.2-0.4-0.4-0.5s-0.3-0.3-0.5-0.3s-0.4-0.1-0.7-0.1c-0.2,0-0.5,0-0.9,0.1V140.8z"/>
	<path class="st2" d="M306.3,140.5l2.9,2.9c0.2,0.2,0.5,0.4,0.7,0.6s0.4,0.3,0.6,0.4s0.3,0.2,0.5,0.2s0.3,0.1,0.5,0.1v0.2h-3.8v-0.2
		c0.3,0,0.4,0,0.5-0.1s0.1-0.2,0.1-0.3c0,0,0-0.1,0-0.1s0-0.1,0-0.1s-0.1-0.1-0.1-0.2s-0.1-0.1-0.2-0.2l-2.8-2.7v2.6
		c0,0.2,0,0.3,0,0.5s0,0.2,0,0.3s0.1,0.1,0.1,0.2s0.1,0.1,0.2,0.1c0.2,0.1,0.3,0.1,0.5,0.1h0.3v0.2h-3.4v-0.2h0.3
		c0.3,0,0.6-0.1,0.7-0.3c0.1-0.1,0.1-0.4,0.1-0.9v-5.2c0-0.2,0-0.3,0-0.4s0-0.2,0-0.3s-0.1-0.1-0.1-0.2s-0.1-0.1-0.2-0.1
		c-0.2-0.1-0.4-0.1-0.5-0.1h-0.3v-0.2h3.4v0.2H306c-0.1,0-0.3,0-0.5,0.1s-0.3,0.2-0.3,0.3c0,0.1-0.1,0.4-0.1,0.8v2.4
		c0,0,0,0,0.1-0.1s0.2-0.1,0.2-0.2s0.2-0.2,0.3-0.2s0.1-0.1,0.2-0.2c0.4-0.4,0.8-0.7,1.1-1c0.3-0.3,0.5-0.5,0.7-0.7s0.3-0.4,0.4-0.5
		s0.1-0.2,0.1-0.3c0-0.1,0-0.2-0.1-0.2c-0.1-0.1-0.2-0.1-0.4-0.1h-0.2v-0.2h2.9v0.2c-0.1,0-0.2,0-0.3,0c-0.1,0-0.2,0.1-0.4,0.1
		s-0.3,0.1-0.5,0.3s-0.4,0.3-0.6,0.5c0,0-0.2,0.2-0.4,0.4c-0.2,0.2-0.5,0.5-0.8,0.8L306.3,140.5z"/>
	<path class="st2" d="M331.3,136.8v2.8h-0.2c-0.1-0.7-0.3-1.3-0.7-1.7s-0.9-0.6-1.5-0.6c-0.2,0-0.4,0-0.6,0.1s-0.3,0.2-0.4,0.3
		c-0.1,0.1-0.2,0.2-0.3,0.4s-0.1,0.3-0.1,0.5c0,0.1,0,0.3,0.1,0.4s0.2,0.3,0.5,0.6c0.5,0.3,1,0.6,1.4,0.8c0.4,0.2,0.9,0.5,1.5,0.9
		c0.3,0.2,0.5,0.5,0.6,0.8c0.1,0.3,0.2,0.6,0.2,0.9c0,0.3-0.1,0.6-0.2,0.9s-0.3,0.5-0.5,0.7s-0.5,0.4-0.8,0.5
		c-0.3,0.1-0.7,0.2-1,0.2c-0.2,0-0.5,0-0.7-0.1c0,0-0.1,0-0.3-0.1s-0.3-0.1-0.5-0.1c-0.2,0-0.3-0.1-0.5-0.1s-0.2-0.1-0.3-0.1
		c-0.1,0-0.2,0-0.2,0.1s-0.1,0.2-0.1,0.4h-0.2v-2.7h0.2c0.1,0.6,0.2,1,0.4,1.3c0.1,0.1,0.2,0.3,0.3,0.4s0.3,0.2,0.5,0.3
		s0.4,0.2,0.6,0.2s0.4,0.1,0.6,0.1c0.2,0,0.5,0,0.7-0.1c0.2-0.1,0.4-0.2,0.5-0.3s0.2-0.3,0.3-0.4s0.1-0.3,0.1-0.5
		c0-0.2-0.1-0.4-0.2-0.6c-0.1-0.2-0.3-0.4-0.5-0.6c-0.3-0.2-0.6-0.3-0.9-0.5c-0.7-0.4-1.3-0.7-1.8-1.1c-0.3-0.2-0.5-0.5-0.7-0.8
		s-0.2-0.6-0.2-0.9c0-0.3,0.1-0.5,0.2-0.8s0.3-0.5,0.5-0.7s0.5-0.3,0.7-0.5c0.3-0.1,0.6-0.2,0.9-0.2c0.4,0,0.9,0.1,1.3,0.3
		c0.1,0,0.2,0.1,0.3,0.1s0.1,0,0.2,0c0.1,0,0.2,0,0.3-0.1s0.1-0.2,0.1-0.4H331.3z"/>
</g>
<line class="st3" x1="67.7" y1="130.3" x2="383.8" y2="130.3"/>
<line class="st3" x1="67.7" y1="150.7" x2="383.8" y2="150.7"/>
<g>
	<path class="st0" d="M333.3,36.1c0,0,0,32.1,0,33.7l4.4-6.3l6.3-5.9c3.9-3.6,6.7-6,8.6-7l2.5-3.8l2.3-4.4c0.4-0.2,1.8-1.6,4.4-4.3
		c2.3-2.5,4.3-4,5.9-4.4c1.4,1,3.3,2.8,5.7,5.2l7.6,7.7l-1.4,3.5l-23.2,23.7c0.9,1.6,1.9,3.1,3,4.6c1.1,1.5,2.4,2.8,3.8,4
		c2.5,2.3,6.2,5.3,10.9,8.9l2,0.3l1.7-0.1l1.6-0.1c0.9,0,1.6,0.1,2,0.4c0.4,0.1,0.8,0.7,1.2,1.7c0,1-0.3,1.9-1,2.5l6.6,3.9
		c0,3.6-0.7,6.9-2.2,10c-1.2,3-2.8,4.9-4.6,5.8l-3.2,1.1c-0.9,0-1.9-0.7-3.2-2.2c-1.3-1.5-2.3-2.4-3-2.8c-4.1-2.3-7.9-4.7-11.4-7.4
		l-11.9-8.9c-3.7-2.9-7.2-5.5-10.5-7.6l-0.7,2.8l-0.2,3.2l0.3,5.9l0.4,5.1c0,1.5-0.2,3.2-0.7,4.9l0.3,2c0,2.6-1.1,4.4-3.4,5.3
		c-2.5,0.2-4.4,0.6-5.7,1.1c-1.4,0.4-2.6,1.1-3.6,2.1c-1.5-0.9-3-1.9-4.4-3.1l-3.5-3.7l-0.4-8l0.2-9l0.2-6.8v-1.2
		c0-3.2,0.3-1.8-0.1-3.6c-0.2-2.3-1.6-5.8-2.8-8.4c0-0.7-0.3-2.3-1.4-4.2c-1.1-1.9-1.4-1.4-1.4-2.1c0-1.2,1.5-2.6,3.5-3.5l3.5,4.2
		c0,0.1,0.1-35.1,0.1-35.1L333.3,36.1z M321.1,80l-0.5,1.1c-0.4,0.2-0.8,0-1.2-0.5c-0.3-0.6-0.7-0.8-1.3-0.6l-0.8-2l-0.6-2.7
		c-0.3,0-0.7-0.4-1-1.2c-0.2-0.8-0.5-1.3-0.8-1.6c0,1.1,0.5,2.7,1.5,4.9c1,2.2,1.6,3.9,1.8,5l0.3,5.2l0.4,5.7c0,1.6-0.1,2.9-0.4,3.9
		c0.4,1.8,0.6,3.6,0.6,5.4c0,0.9,0,1.8,0,2.8c-0.2,1.1-0.3,1.8-0.4,2.4l-0.5,4.9c1.4,2.1,3.4,3.6,6,4.4l0.1-6.3l0.1-6.3v-1.5
		c0-3.5-0.2-6.6-0.7-9.3l-0.3,0.5c0.1,0.3,0.1,0.5,0.2,0.6c-0.2,0.3-0.4,0.4-0.5,0.5l-0.9-3.6l-0.2-3.4v-1.2c0.8,0,1.1,0.6,1.1,1.9
		v1.5l0.1,1.3l0.7,0.8L324,91l-0.1-1.7c0-0.8-0.1-1.4-0.2-1.8c0-0.9,0.2-1.5,0.5-2.1c0.1-0.7,0-1.3-0.4-2.1l-1.2-2.5
		c0-0.4,0.2-0.8,0.6-1.2C323.2,79.7,319.5,75.5,321.1,80z M322.6,110l-0.3-1.6l-0.1-1.4l0.3-2l0.2,1.7l0.2,2L322.6,110z M326.9,72.1
		l-1,1.1v12.4l2.9,29.5L327,81.5c0-0.4,0.2-0.8,0.7-1c0.5-0.3,0.7-0.7,0.6-1.3c-0.4-0.2-0.8-0.6-1-1.1l-0.2-1.9v-2.3
		C327.1,73,327,72.4,326.9,72.1z M326,103.5l-0.4,14.1h1.3l0.2-1.7c-0.1-0.4-0.3-1.1-0.5-2.1c-0.2-0.9-0.3-1.7-0.4-2.4l-0.2-5V103.5
		z M326.4,98.9l-0.3-1.1l0.3,2V98.9z M330.6,88.9l0.3,6.9l1.2-1.5l-0.3-1.7l0.1-1.9C331.9,89.7,331.5,89.1,330.6,88.9z M329.1,107.2
		l0.2,3.3l0.7-0.3l-0.1-1.7C329.9,107.9,329.6,107.5,329.1,107.2z M348.5,71.6c-1.1,0-2.2,0.4-3.3,1.3l-3.1,2.4l-0.2,2.1
		c0.2,0.4,0.4,0.7,0.5,0.9l-0.8,0.1l-0.3-0.3c-0.1-0.3-0.3-0.5-0.4-0.5l-0.7-0.2c-0.7,0-1.8,0.8-3.4,2.4l-2.5,2.4l1.6,1.2l1.3,0.1
		c1.5,0,2.9-0.2,4.2-0.7c1.3-0.4,2.4-1,3.4-1.7l4.7-5.5c0.8-1.1,1.4-2.3,1.7-3.6c-0.2-0.6-0.4-1-0.5-1.2c-0.4-0.4-0.7-0.7-1.1-0.7
		C349.1,70.1,348.7,70.6,348.5,71.6z M364.9,43.7l-0.4-0.3l-5.2,7.5l3.1-3.1l0.7,0.5l-2,2.4c-0.9,1.4-1.9,1.9-2.8,1.6
		c-1,1.7-2.2,3.4-3.5,5c-1.3,1.6-2.9,2.8-4.6,3.7c0.2-0.5,1.1-1.7,2.7-3.5l2.7-3.3c-0.4-0.1-0.7-0.4-1.1-1l-0.4-1.5
		c-2.7,0.9-5.8,3.2-9.2,6.9c-3.5,3.7-5.7,6.1-6.8,6.9l-0.2,10.8c0.4,0,0.8-0.1,1.1-0.4l1.1-1.1c-0.4-0.4-0.4-0.7,0-1
		c0.2-0.1,0.3-0.3,0.4-0.4c0-0.1,0.1-0.3,0.2-0.3c-0.9,0.9-1.5,1.1-1.7,0.7c0-0.9-0.1-1.5-0.4-1.9l1.9-1.5l0.3,0.5l2.4-1.2
		c0.4,0.2,0.3,0.6-0.1,1.1l-0.5,0.8l4.5-4.1c-0.4,0-0.6,0-0.8,0.1l-0.7,0.7l-0.5-0.4l4.9-4.9l0.4,0.3c0.1,0.3,0,0.6-0.3,1l-0.9,0.7
		c1.5-0.6,3-1.7,4.7-3.3c1.7-1.6,3.5-3.6,5.5-5.8l-0.4-0.3c0.1-0.8,0.6-1.5,1.6-2.2l0.3,0.4v0.7l2.8-2.7c0.7-0.8,0.9-1.6,0.5-2.4
		l1-1.4c0.4-0.4,0.9-0.3,1.3,0.1v-1.4h-2L364.9,43.7z M341.3,80.6l-2,0.2l-1.1-0.9L341.3,80.6z M347.6,61.4l-1.7,1.6l-2.2,1.4
		C344.6,63.3,345.9,62.3,347.6,61.4z M348.2,62.3c0,0.7-0.3,1.2-0.8,1.7l-1.3,0.9L348.2,62.3z M348.5,80.6c0.4,0.7,1.4,1.7,3.1,2.9
		c1.7,1.2,2.7,2.3,2.9,3.2c-1.1-0.2-2.4-1-3.9-2.4c-1.5-1.4-2.7-2.3-3.7-2.8l10,9.6l1.7,0.4l14.9,9.5v-2.1c0.8,0,1.6,0.4,2.5,1.3
		l2.3,2.2l3.7,2.5c1.1,0.7,2.2,1.3,3.4,1.9c1.1-1.5,1.7-2.7,1.9-3.7c0-1-1.6-2.2-4.7-3.4c-3.2-1.3-5-2.5-5.6-3.7l1.1-1.2l-1.4-0.2
		l-1.6-0.1h-2l-3.3-0.1c-0.5-0.1-1.1-0.4-1.9-1.1c0.1,0.4,0.8,0.9,2,1.5c1,0.4,1.7,0.8,2.1,1.2c0,1.1-0.4,1.9-1.1,2.4l-7.4-4.7
		c-1.7-1.1-3.2-2.2-4.6-3.4l0.3-0.3l4.6,2l-7.5-6.6C353.9,83.2,351.2,81.6,348.5,80.6z M352.6,74.6c0,0.7,0.2,1.9,0.7,3.4l0.9,2.6
		l-1.6-0.7c0.6,1.1,1.4,2,2.5,2.8c1.1,0.8,2.3,1.3,3.5,1.5l0.4,1.5c0.1-0.2,0.4-0.3,0.9-0.2l1,0.7l-0.1,0.9l-0.2,0.3l3.3,3.2
		c0.7,0.4,1.4,0.7,2.3,0.9l-1.5-2.5c0.2-0.4,0.6-0.7,1.2-0.8l1.6,0.8c0.9,0.4,1.5,0.7,1.9,0.7L352.6,74.6z M355.7,87.2L356,87
		l1.1,1.3L355.7,87.2z M356,52.5c0.3-0.3,0.6-0.6,0.9-1c0.1-0.1,0.1-0.1,0.2-0.2c-0.4-0.2-0.7-0.2-0.9,0.1c-0.1,0.3-0.2,0.5-0.2,0.7
		C356,52.2,356,52.4,356,52.5z M359.3,43.1c-1.1,0.5-1.7,1.4-1.9,2.6l1-1.1C358.9,44.1,359.2,43.6,359.3,43.1z M360.1,42.2
		c0.4-0.4,1.3-0.9,2.6-1.3c1.3-0.4,2-1.1,2.1-1.9l-0.2-1.3l-2.2,1.7C361.2,40.4,360.4,41.3,360.1,42.2z M362,43.1l1,0.7l0.2-0.7
		l-0.1-0.9h-0.5L362,43.1z M366.5,35.9l-0.4,2.3l-0.2,2.2c0,2.4,0.7,4.3,2.2,5.8l4.1,2.1c1.5,0.7,2.8,1,3.9,1c1.2,0,2.2-0.3,3.2-0.9
		c-0.2-0.3-0.2-0.7,0-1.1c-0.8,0.5-1.5,0.8-2.2,0.8c-0.5,0-1.5-0.3-2.8-0.9c-1.4-0.6-2.6-0.9-3.7-0.9c-1.3-0.7-2.2-1.8-2.7-3.3
		c-0.5-1.5-0.8-3.1-0.8-4.8l0.1-2.2H366.5z M369,37.1c-0.4,0.8-0.7,1.6-0.7,2.5c0,0.7,0.1,1.5,0.4,2.3l1.4,2.4c0.5,0,1.5,0.3,2.9,1
		l2.7,0.9c0.7,0,1.2-0.1,1.5-0.4c-0.4-0.5-1.7-0.9-3.7-1.1c-2-0.3-3.3-1-3.9-2.3l-0.4-1.3l0.4-2.5C369.9,37.8,369.6,37.4,369,37.1z
		 M370.9,41.6c0,0.7,0.3,1,0.9,1c0.6,0,1,0.1,1.3,0.2c-0.7-0.1-1.1-0.5-1.4-1.2v-2.1L370.9,41.6z"/>
</g>
<g>
	<path class="st4" d="M310,77.6c0,0-0.1-0.1-0.1-0.1C309.9,77.6,309.9,77.6,310,77.6z"/>
	<path class="st4" d="M310.5,78.1c-0.1-0.1-0.2-0.2-0.3-0.2C310.3,78,310.4,78.1,310.5,78.1z"/>
	<path class="st4" d="M309.7,77.2c0-0.1-0.1-0.2-0.1-0.2C309.7,77.1,309.7,77.2,309.7,77.2z"/>
	<path class="st4" d="M309.6,76.8c0-0.1,0-0.3,0-0.5C309.6,76.3,309.6,76.6,309.6,76.8z"/>
	<g>
		<path class="st4" d="M309.6,76.8c0-0.1,0-0.3,0-0.5C309.6,76.3,309.6,76.6,309.6,76.8z"/>
		<path class="st5" d="M309.6,76.8c0,0.1,0,0.1,0,0.2c0,0.1,0,0.2,0.1,0.2c0,0.1,0.1,0.2,0.2,0.3c0,0,0.1,0.1,0.1,0.1
			c0.1,0.1,0.2,0.2,0.3,0.3c0.1,0.1,0.2,0.2,0.3,0.2c0.9-1.3,3.5-3.7,3.5-3.7l-4.4,1.8C309.6,76.5,309.6,76.6,309.6,76.8
			C309.6,76.8,309.6,76.8,309.6,76.8z"/>
		<path class="st6" d="M319.7,88.3c0.1,0,0-0.2,0-0.2c-0.1-0.5-0.9-1.3-0.9-1.3c-0.1-0.1,0-0.2,0-0.2l0.7-0.6
			c0.1-0.3,0.8-0.8,0.8-0.8c0.1-0.1-0.1-0.1-0.1-0.1c0.3-0.2,1.1-0.4,1.1-0.4c-0.6-0.5-1.4,0.3-1.4,0.3s-0.8,0.8-1,0.8
			s-0.2-0.1-0.2-0.1l0.1-0.7l-0.1-0.1c0.1-0.4,0.4-0.7,0.4-0.7c-0.5-0.1-0.7,0.9-0.7,0.9l-0.3,1.2l-0.9,1.2v-1.1
			c-0.5,1-0.9,1.4-1.3,1c-0.7-3.6-3.3-6-4.9-7.1s-0.5-2.3-0.5-2.3c-0.1-0.1-0.2-0.2-0.3-0.2c-0.1-0.1-0.2-0.2-0.3-0.3
			c0,0-0.1-0.1-0.1-0.1c-0.1-0.1-0.1-0.2-0.2-0.3c0-0.1-0.1-0.2-0.1-0.2c0-0.1,0-0.1,0-0.2c-0.2,0.1-0.6,0.4-0.6,0.4l-0.2,0
			c-1.3-0.3-1.6,0.2-1.7,0.4c0.2,0.2,0.1,0.4-0.2,0.5c-1.2,1.1-1.3,2.6-1.3,2.6c0,0.7,0.8,0.9,1,1s1.2,0.4,1.1,1.9c0,0,0,0,0,0
			c-0.7,1.5-0.5,4,0.4,6.2c0.1,0.5,0.3,0.6,0.3,0.6s0.3,1.6,0.5,1.4c0.1,0.3,0.2,0.3,0.2,0.3l0.6,1.9c0,0,0,0.3,0.1,0.2
			c0,0.4,0.4,1.8,0.7,1.9c0.2,0.8,1.6,3.1,2.3,3.8c0,0,0.7,3.3,1.7,4.5c0.4,0.4,0.3-1.4,0.3-1.4s0.2,0,0.1-0.3c0,0,0-1,0.1-2.1
			l2,3.1c0,0,1.2,1.4,1.3,2.7c0.2-0.3,0.3,0,0.3,0s0.2,0.4,0.3,1.3c0.1,0.7,0.5-0.8-0.1-3.4c-0.7-2.4-3.2-6-3.7-6.6
			c0-0.1,0-0.2,0-0.4v0l0.7,0.9l-0.3-1.3l-0.2-2.4c0,0,0.2,0.1,0.1-0.2c0.9-1.5,1-3.9,1-3.9c0.1-0.1,0.5-0.9,0.5-0.9
			c0.8-0.8,0.7-1.3,0.7-1.3l0.3-0.3c0.1-0.6,0.6-0.4,0.6-0.4c0.1-0.2,0.7,0.9,0.7,0.9c1.5,0.9,1.3,0.3,1.3,0.3
			C320.1,88.6,319.7,88.3,319.7,88.3z"/>
		<path class="st7" d="M307.2,77.5c0.1-0.2,0.4-0.7,1.7-0.4l0.2,0c0,0,0.4-0.3,0.6-0.4c0,0,0,0,0-0.1c0-0.2,0-0.5,0-0.5
			c0-0.1-2.5-0.4-4,1c-0.5,0.4-1,1.1-1.6,2c0,0-0.6,0.8-1.2,1.2c0.5-0.1,1.5-0.4,2.4,0.1c0.3-0.1,0.3,0,0.4,0.1c0,0,0.2-1.5,1.3-2.6
			C307.2,78,307.3,77.8,307.2,77.5z"/>
	</g>
</g>
</svg>
